# xmcd CD database file
#
# Track frame offsets:
#	150
#	23903
#	55976
#	63325
#	93862
#	99077
#	121609
#	156617
#	164810
#	183200
#	191674
#	202218
#	207691
#
# Disc length: 3086 seconds
#
# Revision: 0
# Processed by: cddbd v1.5.1PL0 Copyright (c) Steve Scherf et al.
# Submitted via: CDex 1.51
#
DISCID=ba0c0c0d
DTITLE=Zu and Eugene Chadbourne - The Zu Side of the Chadbourne
DYEAR=2000
DGENRE=Jazz
TTITLE0=cosmos
TTITLE1=chadbourne in the sky with diamonds
TTITLE2=somewhere over the chadbourne
TTITLE3=porgy and chadbourne
TTITLE4=holiday in chadbournia
TTITLE5=asuenseur pour le chadbourne
TTITLE6=inna gadda na chadbourne
TTITLE7=o chadbourne mio
TTITLE8=house of the rising chadbourne
TTITLE9=stairway to chadbourne
TTITLE10=for those about to chadbourne (we sawte you)
TTITLE11=everybody nedds a chadbourne (to love)
TTITLE12=spirits (albert ayler)
EXTD=YEAR: 2000
EXTT0=
EXTT1=
EXTT2=
EXTT3=
EXTT4=
EXTT5=
EXTT6=
EXTT7=
EXTT8=
EXTT9=
EXTT10=
EXTT11=
EXTT12=
PLAYORDER=
